# xmcd
#
# Track frame offsets:
#	150
#	48385
#	59440
#	91449
#	176726
#	219332
#
# Disc length: 3253 seconds
#
# Revision: 1
# Processed by: cddbd v1.5.2PL0 Copyright (c) Steve Scherf et al.
# Submitted via: audiograbber 1.83.01
#
DISCID=510cb306
DTITLE=Grateful Dead - 73-09-07 Nassau Veterans Memorial Coliseum, Uniondale NY
DYEAR=1900
DGENRE=
TTITLE0=Truckin'
TTITLE1=Drums
TTITLE2=The Other One
TTITLE3=Eyes Of The World
TTITLE4=Sugar Magnolia
TTITLE5=Around and Around
EXTD=
EXTT0=
EXTT1=
EXTT2=
EXTT3=
EXTT4=
EXTT5=
PLAYORDER=
